<svg width="19" height="20" viewBox="0 0 19 20" fill="none" xmlns="http://www.w3.org/2000/svg">
<g clip-path="url(#clip0_16_100)">
<path fill-rule="evenodd" clip-rule="evenodd" d="M17.0573 4.54621C17.2799 4.7689 17.4049 5.07089 17.4049 5.38577C17.4049 5.70065 17.2799 6.00264 17.0573 6.22533L8.15655 15.126C8.03893 15.2437 7.89928 15.337 7.74558 15.4007C7.59188 15.4644 7.42715 15.4971 7.26078 15.4971C7.09442 15.4971 6.92968 15.4644 6.77598 15.4007C6.62228 15.337 6.48264 15.2437 6.36501 15.126L1.94276 10.7046C1.82934 10.595 1.73888 10.464 1.67664 10.3191C1.6144 10.1742 1.58165 10.0184 1.58028 9.86075C1.57891 9.70307 1.60895 9.5467 1.66866 9.40076C1.72837 9.25482 1.81654 9.12224 1.92804 9.01074C2.03954 8.89924 2.17213 8.81107 2.31807 8.75136C2.464 8.69165 2.62037 8.6616 2.77805 8.66297C2.93572 8.66434 3.09155 8.6971 3.23643 8.75934C3.38131 8.82157 3.51234 8.91204 3.62189 9.02546L7.26039 12.664L15.3773 4.54621C15.4876 4.43586 15.6186 4.34832 15.7627 4.28859C15.9068 4.22887 16.0613 4.19813 16.2173 4.19813C16.3733 4.19813 16.5278 4.22887 16.6719 4.28859C16.816 4.34832 16.947 4.43586 17.0573 4.54621Z" fill="#93806D"/>
</g>
<defs>
<clipPath id="clip0_16_100">
<rect width="19" height="19" fill="white" transform="translate(0 0.5)"/>
</clipPath>
</defs>
</svg>
