<svg width="24" height="24" viewBox="0 0 24 24" fill="none" xmlns="http://www.w3.org/2000/svg">
<path d="M15.2658 14.0287H14.617L14.3871 13.8071C14.9003 13.2113 15.2754 12.5094 15.4855 11.7518C15.6956 10.9942 15.7355 10.1995 15.6024 9.42467C15.2165 7.14317 13.3114 5.32125 11.0121 5.04222C10.2038 4.94001 9.38275 5.02397 8.61187 5.28767C7.84099 5.55137 7.14068 5.98782 6.56454 6.56363C5.9884 7.13943 5.5517 7.83932 5.28784 8.60975C5.02399 9.38018 4.93998 10.2007 5.04224 11.0086C5.32144 13.3065 7.14442 15.2105 9.42726 15.5962C10.2026 15.7292 10.9977 15.6893 11.7558 15.4793C12.5138 15.2693 13.2161 14.8945 13.8123 14.3816L14.034 14.6114V15.2597L17.524 18.7476C17.8606 19.0841 18.4108 19.0841 18.7475 18.7476C19.0842 18.4112 19.0842 17.8613 18.7475 17.5248L15.2658 14.0287ZM10.3388 14.0287C8.29406 14.0287 6.64351 12.3791 6.64351 10.3356C6.64351 8.29212 8.29406 6.64255 10.3388 6.64255C12.3835 6.64255 14.034 8.29212 14.034 10.3356C14.034 12.3791 12.3835 14.0287 10.3388 14.0287Z" fill="#33291E"/>
</svg>
